<?xml version="1.0" encoding="utf-8"?>
<!-- Generator: Adobe Illustrator 18.0.0, SVG Export Plug-In . SVG Version: 6.00 Build 0)  -->
<!DOCTYPE svg PUBLIC "-//W3C//DTD SVG 1.0//EN" "http://www.w3.org/TR/2001/REC-SVG-20010904/DTD/svg10.dtd">
<svg version="1.0" id="Layer_1" xmlns="http://www.w3.org/2000/svg" xmlns:xlink="http://www.w3.org/1999/xlink" x="0px" y="0px"
	 viewBox="0 0 254.5 251.2" enable-background="new 0 0 254.5 251.2" xml:space="preserve">
<g>
	<path fill="#FFFFFF" d="M0.9,213c-0.4,2.1-0.5,4.2-0.7,6.3c0,0.2-0.1,0.4-0.2,0.6c0,2.1,0,4.3,0,6.4c0.1,0.2,0.2,0.4,0.2,0.6
		c0.2,1.6,0.3,3.2,0.7,4.8c1.7,7.3,5.8,12.8,12.6,16.2c4.7,2.3,9.8,3.1,15,3.4c2.3,0.1,4.6,0,6.9-0.2c2.4-0.2,4.9-0.4,7.3-1
		c6-1.3,11.5-3.7,16.4-7.4c3.1-2.3,5.8-5,8.2-8c2.9-3.7,5.3-7.6,6.9-11.9c1.5-3.9,2.8-7.8,3.8-11.8C79.5,205.3,122.4,3.3,123.1,0
		C97.1,0,71.2,0,45.3,0C45,1.9,0.9,213,0.9,213z"/>
	<path fill="#FFFFFF" d="M170.6,0c0.1,0.1,0.3,0.2,0.4,0.2c2.5,0.1,4.9,0.1,7.4,0.3c3,0.2,6,0.5,9,0.9c2.4,0.3,4.8,0.5,7.2,0.9
		c4.5,0.8,9.1,1.6,13.5,2.8c3.9,1,7.8,2.4,11.5,3.8c5.3,2,10.2,4.7,14.7,8.2c2.6,2,5.1,4.2,7.3,6.6c2.2,2.5,4.1,5.3,5.8,8.2
		c2.7,4.3,4.3,9,5.3,13.9c0.6,2.7,1,5.4,1.3,8.1c0.3,3.3,0.5,6.6,0.4,10c-0.1,3.8-0.5,7.7-1.1,11.5c-0.8,5-1.7,10.1-2.9,15.1
		c-1.4,6.2-3.5,12.2-6,18.1c-2.6,6.2-5.7,12.1-9.6,17.6c-1.9,2.7-4,5.3-6.1,7.9c-1.5,1.8-3,3.6-4.7,5.2c-5.2,4.9-10.8,9.3-17,13
		c-7.6,4.6-15.7,8-24.2,10.6c-5.7,1.8-11.6,3.3-17.5,4.2c-4,0.6-8.1,1.2-12.1,1.7c-3.2,0.4-6.4,0.7-9.7,0.9
		c-3.6,0.2-7.2,0.4-10.8,0.4c-11.8,0.1-23.6,0.2-35.4,0.2c-0.1,0-0.1,0-0.3-0.1c4.2-19.8,8.4-39.6,12.7-59.6c0.3,0,0.8,0,1.2,0
		c10.8,0,21.6,0,32.4,0c4.5,0,8.8-1.1,12.9-2.8c4.3-1.8,8.1-4.4,11.3-7.9c3.8-4.2,6.5-9,7.4-14.7c0.4-2.4,0.8-4.9,0.6-7.4
		c-0.3-6.5-3.3-11.6-9.1-14.8c-3.6-2-7.6-3-11.7-3.3c-1.9-0.1-3.7-0.2-5.6-0.2c-9.1,0-18.2,0-27.3,0c-0.4,0-0.8,0-1.3,0
		c0.6-3,12.3-58.2,12.6-59.6C145.7,0,158.1,0,170.6,0z"/>
</g>
</svg>
